<mxfile host="app.diagrams.net" modified="2021-08-20T22:22:20.163Z" agent="5.0 (Macintosh; Intel Mac OS X 10_15_6) AppleWebKit/605.1.15 (KHTML, like Gecko) Version/14.0.3 Safari/605.1.15" etag="fINhY0343klDBQD484Zp" version="14.9.7" type="github">
  <diagram id="0gDQ7mKvqnQmOCOYGsbZ" name="Page-1">
    <mxGraphModel dx="1144" dy="677" grid="1" gridSize="10" guides="1" tooltips="1" connect="1" arrows="1" fold="1" page="1" pageScale="1" pageWidth="850" pageHeight="1100" math="0" shadow="0">
      <root>
        <mxCell id="0" />
        <mxCell id="1" parent="0" />
        <mxCell id="H_ftfsLI6rwE4DoHPsOa-1" value="Header&lt;br&gt;" style="rounded=0;whiteSpace=wrap;html=1;" vertex="1" parent="1">
          <mxGeometry x="100" y="50" width="720" height="120" as="geometry" />
        </mxCell>
        <mxCell id="H_ftfsLI6rwE4DoHPsOa-2" value="" style="whiteSpace=wrap;html=1;aspect=fixed;align=left;" vertex="1" parent="1">
          <mxGeometry x="100" y="190" width="720" height="720" as="geometry" />
        </mxCell>
        <mxCell id="H_ftfsLI6rwE4DoHPsOa-5" value="" style="rounded=0;whiteSpace=wrap;html=1;" vertex="1" parent="1">
          <mxGeometry x="120" y="330" width="220" height="350" as="geometry" />
        </mxCell>
        <mxCell id="H_ftfsLI6rwE4DoHPsOa-6" value="Soda List&lt;br&gt;" style="text;html=1;strokeColor=none;fillColor=none;align=center;verticalAlign=middle;whiteSpace=wrap;rounded=0;" vertex="1" parent="1">
          <mxGeometry x="140" y="340" width="70" height="20" as="geometry" />
        </mxCell>
        <mxCell id="H_ftfsLI6rwE4DoHPsOa-8" value="Soda &amp;nbsp;w/ Details Button" style="rounded=0;whiteSpace=wrap;html=1;" vertex="1" parent="1">
          <mxGeometry x="140" y="380" width="120" height="60" as="geometry" />
        </mxCell>
        <mxCell id="H_ftfsLI6rwE4DoHPsOa-9" value="Soda &amp;nbsp;w/ Details Button" style="rounded=0;whiteSpace=wrap;html=1;" vertex="1" parent="1">
          <mxGeometry x="140" y="450" width="120" height="60" as="geometry" />
        </mxCell>
        <mxCell id="H_ftfsLI6rwE4DoHPsOa-10" value="Soda &amp;nbsp;w/ Details Button" style="rounded=0;whiteSpace=wrap;html=1;" vertex="1" parent="1">
          <mxGeometry x="140" y="520" width="120" height="60" as="geometry" />
        </mxCell>
        <mxCell id="H_ftfsLI6rwE4DoHPsOa-11" value="Add New Soda Button&lt;br&gt;" style="rounded=0;whiteSpace=wrap;html=1;" vertex="1" parent="1">
          <mxGeometry x="140" y="600" width="120" height="60" as="geometry" />
        </mxCell>
        <mxCell id="H_ftfsLI6rwE4DoHPsOa-12" value="" style="rounded=0;whiteSpace=wrap;html=1;" vertex="1" parent="1">
          <mxGeometry x="350" y="330" width="230" height="350" as="geometry" />
        </mxCell>
        <mxCell id="H_ftfsLI6rwE4DoHPsOa-13" value="New Soda Form&lt;br&gt;" style="text;html=1;strokeColor=none;fillColor=none;align=center;verticalAlign=middle;whiteSpace=wrap;rounded=0;" vertex="1" parent="1">
          <mxGeometry x="400" y="350" width="120" height="80" as="geometry" />
        </mxCell>
        <mxCell id="H_ftfsLI6rwE4DoHPsOa-18" value="" style="rounded=0;whiteSpace=wrap;html=1;" vertex="1" parent="1">
          <mxGeometry x="600" y="330" width="210" height="350" as="geometry" />
        </mxCell>
        <mxCell id="H_ftfsLI6rwE4DoHPsOa-19" value="Soda Details&lt;br&gt;" style="text;html=1;strokeColor=none;fillColor=none;align=center;verticalAlign=middle;whiteSpace=wrap;rounded=0;" vertex="1" parent="1">
          <mxGeometry x="620" y="360" width="160" height="60" as="geometry" />
        </mxCell>
        <mxCell id="H_ftfsLI6rwE4DoHPsOa-20" value="Submit Button&lt;br&gt;" style="rounded=0;whiteSpace=wrap;html=1;" vertex="1" parent="1">
          <mxGeometry x="405" y="590" width="120" height="60" as="geometry" />
        </mxCell>
        <mxCell id="H_ftfsLI6rwE4DoHPsOa-22" value="&lt;span style=&quot;font-size: 23px ; text-align: center&quot;&gt;Soda MachineControl&lt;/span&gt;&lt;h1&gt;&lt;span style=&quot;font-size: 12px ; font-weight: normal&quot;&gt;This component will control what view is showing and hold our shared state&lt;/span&gt;&lt;br&gt;&lt;/h1&gt;&lt;div&gt;&lt;span style=&quot;font-size: 12px ; font-weight: normal&quot;&gt;&lt;br&gt;&lt;/span&gt;&lt;/div&gt;" style="text;html=1;strokeColor=none;fillColor=none;spacing=5;spacingTop=-20;whiteSpace=wrap;overflow=hidden;rounded=0;" vertex="1" parent="1">
          <mxGeometry x="330" y="210" width="300" height="100" as="geometry" />
        </mxCell>
        <mxCell id="H_ftfsLI6rwE4DoHPsOa-23" value="Sell Soda Button&lt;br&gt;" style="rounded=0;whiteSpace=wrap;html=1;" vertex="1" parent="1">
          <mxGeometry x="270" y="380" width="60" height="60" as="geometry" />
        </mxCell>
        <mxCell id="H_ftfsLI6rwE4DoHPsOa-26" value="" style="edgeStyle=orthogonalEdgeStyle;rounded=0;orthogonalLoop=1;jettySize=auto;html=1;" edge="1" parent="1" source="H_ftfsLI6rwE4DoHPsOa-24" target="H_ftfsLI6rwE4DoHPsOa-23">
          <mxGeometry relative="1" as="geometry" />
        </mxCell>
        <mxCell id="H_ftfsLI6rwE4DoHPsOa-24" value="Sell Soda Button&lt;br&gt;" style="rounded=0;whiteSpace=wrap;html=1;" vertex="1" parent="1">
          <mxGeometry x="270" y="450" width="60" height="60" as="geometry" />
        </mxCell>
        <mxCell id="H_ftfsLI6rwE4DoHPsOa-25" value="Sell Soda Button&lt;br&gt;" style="rounded=0;whiteSpace=wrap;html=1;" vertex="1" parent="1">
          <mxGeometry x="270" y="520" width="60" height="60" as="geometry" />
        </mxCell>
      </root>
    </mxGraphModel>
  </diagram>
</mxfile>